<?xml version="1.0" encoding="utf-8"?>
<!-- Generator: Adobe Illustrator 24.1.3, SVG Export Plug-In . SVG Version: 6.00 Build 0)  -->
<svg version="1.1" id="레이어_1" xmlns="http://www.w3.org/2000/svg" xmlns:xlink="http://www.w3.org/1999/xlink" x="0px"
	 y="0px" viewBox="0 0 822.9 115.35" style="enable-background:new 0 0 822.9 115.35;" xml:space="preserve">
<style type="text/css">
	.st0{fill:none;}
	.st1{fill:#EBC440;}
	.st2{fill:#B2984B;}
</style>
<polygon class="st0" points="42.03,34.55 8.13,68.45 8.13,79.82 43.2,79.82 43.2,97.35 56.73,97.35 56.73,69.62 18.83,69.62 
	53.9,34.55 "/>
<polygon class="st0" points="88.61,83.16 88.61,83.16 88.61,83.15 "/>
<path class="st0" d="M702.94,31.53c-1.03,0-1.54,0.51-1.54,1.54c0,1.03,0.51,1.54,1.54,1.54c1.03,0,1.54-0.51,1.54-1.54
	C704.48,32.05,703.96,31.53,702.94,31.53z"/>
<polygon class="st0" points="68.25,34.55 68.25,45.26 78.95,34.55 "/>
<path class="st1" d="M179.92,85.03c4.21-3.29,6.32-8.02,6.32-14.18c0-6.37-2.24-11.2-6.71-14.49c-3.39-2.47-7.22-3.7-11.49-3.7
	c-1.29,0-2.54-0.33-3.78-1c-2.16-1.18-3.24-3.16-3.24-5.94c0-2.83,1.08-4.83,3.24-6.01c1.18-0.67,2.44-1,3.78-1
	c1.28,0,2.52,0.33,3.7,1c2.16,1.18,3.24,3.19,3.24,6.01v1.77c0,1.65,0.53,2.99,1.58,4.05c1.05,1.05,2.4,1.58,4.05,1.58
	c1.64,0,2.99-0.53,4.05-1.58c1.05-1.05,1.58-2.4,1.58-4.05v-1.77c0-6.42-2.24-11.28-6.71-14.57c-3.39-2.47-7.22-3.7-11.49-3.7
	c-4.27,0-8.09,1.23-11.49,3.7c-4.52,3.29-6.78,8.15-6.78,14.57c0,6.37,2.26,11.2,6.78,14.49c3.39,2.47,7.22,3.7,11.49,3.7
	c1.23,0,2.47,0.33,3.7,1c2.16,1.18,3.24,3.16,3.24,5.94c0,2.83-1.08,4.83-3.24,6.01c-1.18,0.67-2.44,1-3.78,1
	c-1.29,0-2.52-0.33-3.7-1c-2.16-1.18-3.24-3.19-3.24-6.01V67.3c0-1.7-0.51-3.06-1.54-4.09c-1.03-1.03-2.39-1.54-4.09-1.54
	s-3.06,0.51-4.09,1.54c-1.03,1.03-1.54,2.39-1.54,4.09v16.19c0,0.98-0.54,1.49-1.62,1.54l-48.86,0.04v2.09l0,0v1.96h48.94
	c1.59,0,2.93-0.54,4.01-1.62c1.08-1.08,1.62-2.42,1.62-4.01V67.3c0-1.08,0.51-1.62,1.54-1.62c1.03,0,1.54,0.54,1.54,1.62v3.55
	c0,3.24,1.04,5.9,3.12,7.98c2.08,2.08,4.74,3.12,7.98,3.12c3.24,0,5.88-1.04,7.94-3.12c2.05-2.08,3.08-4.74,3.08-7.98
	c0-3.19-1.04-5.82-3.12-7.9c-2.08-2.08-4.72-3.12-7.9-3.12c-2.52,0-4.96-0.62-7.32-1.85c-4.57-2.36-6.86-6.45-6.86-12.26
	c0-5.86,2.29-9.97,6.86-12.33c2.36-1.23,4.8-1.85,7.32-1.85c2.47,0,4.88,0.62,7.25,1.85c4.57,2.36,6.86,6.48,6.86,12.33v1.77
	c0,1.03-0.51,1.54-1.54,1.54c-1.03,0-1.54-0.51-1.54-1.54v-1.77c0-3.24-1.03-5.9-3.08-7.98c-2.06-2.08-4.7-3.12-7.94-3.12
	c-3.24,0-5.9,1.04-7.98,3.12c-2.08,2.08-3.12,4.74-3.12,7.98c0,6.68,3.62,10.36,10.87,11.02c3.19,0.31,5.68,0.93,7.48,1.85
	c4.57,2.36,6.86,6.45,6.86,12.26c0,5.86-2.29,9.97-6.86,12.33c-2.36,1.23-4.78,1.85-7.25,1.85v4.09h21.81v-4.09H179.92z"/>
<path class="st1" d="M85.78,87.16h-4.01c0,0,0.05,1.37,0.36,1.75c1.19,1.45,5.14,1.34,6.15,0.07c0.3-0.38,0.33-1.81,0.33-1.81H85.78
	z"/>
<path class="st1" d="M64.25,87.16c0,0-0.05,1.54,0.3,1.88c0.71,0.71,2.77,0.79,3.4,0.01c0.31-0.38,0.31-1.89,0.31-1.89H64.25z"/>
<path class="st1" d="M206.36,85.03c-1.08,0-1.62-0.51-1.62-1.54c0-1.03,0.54-1.54,1.62-1.54h25.13c1.59,0,2.94-0.54,4.05-1.62
	c1.1-1.08,1.66-2.42,1.66-4.01c0-1.64-0.54-3.01-1.62-4.09s-2.44-1.62-4.09-1.62h-21.58c-3.44,0-5.16-1.72-5.16-5.16
	c0-1.54,0.47-2.79,1.43-3.74c0.95-0.95,2.2-1.43,3.74-1.43h14.41c1.7,0,3.06-0.51,4.09-1.54c1.03-1.03,1.54-2.39,1.54-4.09
	c0-1.64-0.53-2.99-1.58-4.05c-1.05-1.05-2.4-1.58-4.05-1.58h-14.41c-1.54,0-2.79-0.47-3.74-1.43c-0.95-0.95-1.43-2.2-1.43-3.74
	s0.47-2.79,1.43-3.74c0.95-0.95,2.2-1.43,3.74-1.43h21.58c1.64,0,3.01-0.53,4.09-1.58c1.08-1.05,1.62-2.4,1.62-4.05
	c0-1.64-0.54-2.99-1.62-4.05c-1.08-1.05-2.44-1.58-4.09-1.58h-38v56.04c0,0.98-0.54,1.49-1.62,1.54h-2v4.09h2.08
	c1.64,0,2.99-0.53,4.05-1.58c1.05-1.05,1.58-2.4,1.58-4.05V31.53h33.92c1.08,0,1.62,0.51,1.62,1.54c0,1.03-0.54,1.54-1.62,1.54
	h-21.58c-2.67,0-4.88,0.87-6.63,2.62c-1.75,1.75-2.62,3.96-2.62,6.63c0,2.67,0.87,4.88,2.62,6.63c1.75,1.75,3.96,2.62,6.63,2.62
	h14.41c1.03,0,1.54,0.5,1.54,1.5c0,1.05-0.51,1.58-1.54,1.58h-14.41c-2.67,0-4.88,0.87-6.63,2.6c-1.75,1.74-2.62,3.95-2.62,6.65
	c0,2.7,0.87,4.92,2.62,6.68c1.75,1.76,3.96,2.64,6.63,2.64h21.58c1.08,0,1.62,0.53,1.62,1.58c0,1-0.54,1.5-1.62,1.5h-25.13
	c-1.65,0-3.01,0.53-4.09,1.58c-1.08,1.05-1.62,2.4-1.62,4.05c0,1.65,0.54,2.99,1.62,4.05c1.08,1.05,2.44,1.58,4.09,1.58h34.3v-4.09
	H206.36z"/>
<rect x="189.87" y="85.03" class="st1" width="0" height="4.09"/>
<path class="st1" d="M277.36,81.25c6.32-1.34,11.52-4.52,15.61-9.56c4.09-5.04,6.13-10.77,6.13-17.19c0-7.66-2.66-14.15-7.98-19.46
	s-11.81-7.98-19.46-7.98c-7.61,0-14.07,2.66-19.39,7.98s-7.98,11.81-7.98,19.46c0,6.42,2.04,12.15,6.13,17.19
	c4.09,5.04,9.29,8.22,15.61,9.56v3.78h-25.28v4.09h29.37V77.78l-1.77-0.23c-5.7-0.72-10.46-3.3-14.26-7.75
	c-3.8-4.44-5.7-9.55-5.7-15.3c0-6.48,2.26-11.99,6.78-16.53c4.52-4.55,10.02-6.82,16.5-6.82c6.53,0,12.05,2.26,16.57,6.78
	c4.52,4.52,6.78,10.05,6.78,16.57c0,5.76-1.91,10.86-5.73,15.3c-3.82,4.45-8.59,7.03-14.31,7.75l-1.78,0.23v11.33h29.52v-4.09
	h-25.36V81.25z"/>
<rect x="240.66" y="85.03" class="st1" width="0.08" height="4.09"/>
<path class="st1" d="M355.29,85.1c-1.08-0.05-1.62-0.57-1.62-1.54V33.08c0-1.65-0.53-3-1.58-4.05c-1.05-1.06-2.4-1.58-4.05-1.58
	c-1.59,0-2.93,0.54-4.01,1.62s-1.62,2.42-1.62,4.01v32.38c0,2.21-0.54,4.37-1.62,6.48c-2.06,3.96-5.63,5.94-10.71,5.94
	c-5.09,0-8.66-1.98-10.71-5.94c-1.13-2.21-1.7-4.37-1.7-6.48V33.08c0-1.64-0.53-2.99-1.58-4.05c-1.05-1.05-2.4-1.58-4.05-1.58
	c-1.59,0-2.93,0.54-4.01,1.62s-1.62,2.42-1.62,4.01v50.41c0,0.98-0.54,1.49-1.62,1.54l-2,0.08v4.01h2.08c1.64,0,2.99-0.53,4.05-1.58
	c1.05-1.05,1.58-2.4,1.58-4.05V33.08c0-1.03,0.51-1.54,1.54-1.54c1.03,0,1.54,0.51,1.54,1.54v32.38c0,3.85,1.13,7.32,3.39,10.41
	c2.98,4.06,7.35,6.09,13.1,6.09c5.75,0,10.1-2.03,13.03-6.09c2.26-3.13,3.39-6.6,3.39-10.41V33.08c0-1.03,0.5-1.54,1.5-1.54
	c1.05,0,1.58,0.51,1.58,1.54v50.41c0,1.65,0.54,2.99,1.62,4.05c1.08,1.05,2.44,1.58,4.09,1.58l2.08,0.08l-0.08-4.01L355.29,85.1z"/>
<path class="st1" d="M372.25,83.49c0-1.03,0.54-1.54,1.62-1.54h17.96c1.64,0,2.99-0.53,4.05-1.58c1.05-1.05,1.58-2.4,1.58-4.05
	c0-1.64-0.53-3.01-1.58-4.09c-1.05-1.08-2.4-1.62-4.05-1.62h-14.41c-1.59,0-2.85-0.46-3.78-1.39c-0.92-0.93-1.39-2.18-1.39-3.78
	V33.08c0-1.64-0.53-2.99-1.58-4.05c-1.05-1.05-2.4-1.58-4.05-1.58c-1.59,0-2.93,0.54-4.01,1.62s-1.62,2.42-1.62,4.01v50.41
	c0,0.98-0.54,1.49-1.62,1.54h-2v4.09h2.08c1.64,0,2.99-0.53,4.05-1.58c1.05-1.05,1.58-2.4,1.58-4.05V33.08
	c0-1.03,0.51-1.54,1.54-1.54c1.03,0,1.54,0.52,1.54,1.54v32.43c0,2.68,0.87,4.89,2.62,6.64c1.75,1.75,3.96,2.63,6.63,2.63h14.41
	c1.03,0,1.54,0.53,1.54,1.58c0,1-0.51,1.5-1.54,1.5h-17.96c-1.65,0-3.01,0.53-4.09,1.58c-1.08,1.05-1.62,2.4-1.62,4.05
	c0,1.65,0.54,2.99,1.62,4.05c1.08,1.05,2.44,1.58,4.09,1.58h66.2v-4.09h-66.2C372.79,85.03,372.25,84.52,372.25,83.49z"/>
<path class="st1" d="M456.11,85.03c-1.08,0-1.62-0.51-1.62-1.54c0-1.03,0.54-1.54,1.62-1.54h17.96c3.03,0,5.73-0.88,8.09-2.63
	c3.19-2.32,4.78-5.75,4.78-10.28c0-4.54-1.59-7.96-4.78-10.28c-2.31-1.7-5.01-2.55-8.09-2.55h-17.96c-1.08,0-1.62-0.53-1.62-1.58
	c0-1,0.54-1.5,1.62-1.5h17.96c3.03,0,5.73-0.87,8.09-2.62c3.19-2.31,4.78-5.73,4.78-10.25c0-4.47-1.59-7.86-4.78-10.18
	c-2.37-1.75-5.06-2.62-8.09-2.62h-30.83v56.04c0,0.98-0.54,1.49-1.62,1.54h-2v4.09h2.08c1.64,0,2.99-0.53,4.05-1.58
	c1.05-1.05,1.58-2.4,1.58-4.05V31.53h26.75c1.7,0,3.26,0.39,4.7,1.16c2.72,1.44,4.09,3.96,4.09,7.55c0,3.6-1.36,6.12-4.09,7.55
	c-1.54,0.82-3.11,1.23-4.7,1.23h-17.96c-1.59,0-2.94,0.54-4.05,1.62c-1.11,1.08-1.66,2.42-1.66,4.01c0,1.65,0.54,2.99,1.62,4.05
	c1.08,1.05,2.44,1.58,4.09,1.58h17.96c1.64,0,3.21,0.41,4.7,1.23c2.72,1.49,4.09,4.01,4.09,7.55s-1.36,6.06-4.09,7.55
	c-1.49,0.82-3.06,1.23-4.7,1.23h-17.96c-1.65,0-3.01,0.53-4.09,1.58c-1.08,1.05-1.62,2.4-1.62,4.05c0,1.65,0.54,2.99,1.62,4.05
	c1.08,1.05,2.44,1.58,4.09,1.58h37.92v-4.09H456.11z"/>
<path class="st1" d="M544.84,85.03h-34.3c-1.08,0-1.62-0.51-1.62-1.54c0-1.03,0.54-1.54,1.62-1.54h25.13c1.59,0,2.94-0.54,4.05-1.62
	c1.1-1.08,1.66-2.42,1.66-4.01c0-1.64-0.54-3.01-1.62-4.09s-2.44-1.62-4.08-1.62h-21.58c-3.44,0-5.16-1.72-5.16-5.16
	c0-1.54,0.47-2.79,1.43-3.74c0.95-0.95,2.2-1.43,3.74-1.43h14.42c1.7,0,3.06-0.51,4.08-1.54c1.03-1.03,1.54-2.39,1.54-4.09
	c0-1.64-0.53-2.99-1.58-4.05c-1.05-1.05-2.4-1.58-4.05-1.58h-14.42c-1.54,0-2.79-0.47-3.74-1.43c-0.95-0.95-1.43-2.2-1.43-3.74
	s0.47-2.79,1.43-3.74c0.95-0.95,2.2-1.43,3.74-1.43h21.58c1.64,0,3.01-0.53,4.08-1.58c1.08-1.05,1.62-2.4,1.62-4.05
	c0-1.64-0.54-2.99-1.62-4.05c-1.08-1.05-2.44-1.58-4.08-1.58h-38v56.04c0,0.98-0.54,1.49-1.62,1.54h-1.93v4.09h2
	c1.64,0,2.99-0.53,4.05-1.58c1.05-1.05,1.58-2.4,1.58-4.05V31.53h33.92c1.08,0,1.62,0.51,1.62,1.54c0,1.03-0.54,1.54-1.62,1.54
	h-21.58c-2.67,0-4.88,0.87-6.63,2.62c-1.75,1.75-2.62,3.96-2.62,6.63c0,2.67,0.87,4.88,2.62,6.63c1.75,1.75,3.96,2.62,6.63,2.62
	h14.42c1.03,0,1.54,0.5,1.54,1.5c0,1.05-0.51,1.58-1.54,1.58h-14.42c-2.67,0-4.88,0.87-6.63,2.6c-1.75,1.74-2.62,3.95-2.62,6.65
	c0,2.7,0.87,4.92,2.62,6.68c1.75,1.76,3.96,2.64,6.63,2.64h21.58c1.08,0,1.62,0.53,1.62,1.58c0,1-0.54,1.5-1.62,1.5h-25.13
	c-1.65,0-3.01,0.53-4.08,1.58c-1.08,1.05-1.62,2.4-1.62,4.05c0,1.65,0.54,2.99,1.62,4.05c1.08,1.05,2.44,1.58,4.08,1.58h34.38v-0.08
	h-0.08V85.03z"/>
<rect x="494.04" y="85.03" class="st1" width="0.08" height="4.09"/>
<path class="st1" d="M590.01,85.03c-1.08,0-1.62-0.54-1.62-1.62V33.09c0-1.7-0.51-3.06-1.53-4.1c-1.02-1.03-2.38-1.55-4.06-1.55
	c-1.63,0-2.97,0.53-4.02,1.58c-1.05,1.06-1.57,2.41-1.57,4.06v45.39l-25.58-51.03h-3.17v55.96c0,1.08-0.54,1.62-1.62,1.62h-1.93
	v4.01h2c1.64,0,2.98-0.53,4.01-1.58c1.03-1.05,1.54-2.4,1.54-4.05V38.16l25.66,50.95h3.17V33.23c0-1.08,0.5-1.62,1.5-1.62
	c1.05,0,1.58,0.54,1.58,1.62v50.12c0,3.34,1.85,5.21,5.55,5.62l2.16,0.23l-0.08-4.16H590.01z"/>
<rect x="544.84" y="85.03" class="st1" width="0.08" height="4.01"/>
<path class="st1" d="M608.58,85.03c-1.08,0-1.62-0.51-1.62-1.54c0-1.03,0.54-1.54,1.62-1.54h25.13c1.59,0,2.94-0.54,4.05-1.62
	c1.1-1.08,1.66-2.42,1.66-4.01c0-1.64-0.54-3.01-1.62-4.09s-2.44-1.62-4.08-1.62h-21.58c-3.44,0-5.17-1.72-5.17-5.16
	c0-1.54,0.47-2.79,1.43-3.74c0.95-0.95,2.2-1.43,3.74-1.43h14.42c1.7,0,3.06-0.51,4.08-1.54c1.03-1.03,1.54-2.39,1.54-4.09
	c0-1.64-0.53-2.99-1.58-4.05c-1.05-1.05-2.4-1.58-4.05-1.58h-14.42c-1.54,0-2.79-0.47-3.74-1.43c-0.95-0.95-1.43-2.2-1.43-3.74
	s0.47-2.79,1.43-3.74c0.95-0.95,2.2-1.43,3.74-1.43h21.58c1.64,0,3.01-0.53,4.08-1.58c1.08-1.05,1.62-2.4,1.62-4.05
	c0-1.64-0.54-2.99-1.62-4.05c-1.08-1.05-2.44-1.58-4.08-1.58h-38v56.04c0,0.98-0.54,1.49-1.62,1.54h-2v4.09h2.08
	c1.64,0,2.99-0.53,4.05-1.58c1.05-1.05,1.58-2.4,1.58-4.05V31.53h33.92c1.08,0,1.62,0.51,1.62,1.54c0,1.03-0.54,1.54-1.62,1.54
	h-21.58c-2.67,0-4.88,0.87-6.63,2.62c-1.75,1.75-2.62,3.96-2.62,6.63c0,2.67,0.87,4.88,2.62,6.63c1.75,1.75,3.96,2.62,6.63,2.62
	h14.42c1.03,0,1.54,0.5,1.54,1.5c0,1.05-0.51,1.58-1.54,1.58h-14.42c-2.67,0-4.88,0.87-6.63,2.6c-1.75,1.74-2.62,3.95-2.62,6.65
	c0,2.7,0.87,4.92,2.62,6.68c1.75,1.76,3.96,2.64,6.63,2.64h21.58c1.08,0,1.62,0.53,1.62,1.58c0,1-0.54,1.5-1.62,1.5h-25.13
	c-1.65,0-3.01,0.53-4.09,1.58c-1.08,1.05-1.62,2.4-1.62,4.05c0,1.65,0.54,2.99,1.62,4.05c1.08,1.05,2.44,1.58,4.09,1.58h34.3v-4.09
	H608.58z"/>
<path class="st1" d="M693.76,85.1v-0.07h-36V65.45c0-1.54,0.47-2.79,1.43-3.74c0.95-0.95,2.2-1.43,3.74-1.43h14.42
	c1.7,0,3.06-0.51,4.08-1.54c1.03-1.03,1.54-2.39,1.54-4.09c0-1.64-0.53-2.99-1.58-4.05c-1.05-1.05-2.4-1.58-4.05-1.58h-14.42
	c-1.54,0-2.79-0.47-3.74-1.43c-0.95-0.95-1.43-2.2-1.43-3.74s0.47-2.79,1.43-3.74c0.95-0.95,2.2-1.43,3.74-1.43h21.58
	c1.64,0,3.01-0.53,4.08-1.58c1.08-1.05,1.62-2.4,1.62-4.05c0-1.64-0.54-2.99-1.62-4.05c-1.08-1.05-2.44-1.58-4.08-1.58h-38v56.04
	c0,0.98-0.54,1.49-1.62,1.54h-1.93v4.09h2c1.64,0,2.99-0.53,4.05-1.58c1.05-1.05,1.58-2.4,1.58-4.05V31.53h33.92
	c1.08,0,1.62,0.51,1.62,1.54c0,1.03-0.54,1.54-1.62,1.54h-21.58c-2.67,0-4.88,0.87-6.63,2.62c-1.75,1.75-2.62,3.96-2.62,6.63
	c0,2.67,0.87,4.88,2.62,6.63c1.75,1.75,3.96,2.62,6.63,2.62h14.42c1.03,0,1.54,0.5,1.54,1.5c0,1.05-0.51,1.58-1.54,1.58h-14.42
	c-2.67,0-4.88,0.86-6.63,2.59c-1.75,1.73-2.62,3.93-2.62,6.61v23.72h40.01v-4.01L693.76,85.1z"/>
<rect x="642.89" y="85.03" class="st1" width="0.08" height="4.09"/>
<path class="st1" d="M710.18,85.03c-1.08-0.05-1.62-0.56-1.62-1.54V40.24c0-1.34-0.41-2.54-1.23-3.62c0.82-1.03,1.23-2.21,1.23-3.55
	c0-1.54-0.55-2.86-1.66-3.97c-1.11-1.1-2.43-1.66-3.97-1.66s-2.87,0.55-3.97,1.66c-1.11,1.11-1.66,2.43-1.66,3.97
	c0,1.34,0.41,2.52,1.23,3.55c-0.82,1.08-1.23,2.29-1.23,3.62v43.24c0,0.98-0.54,1.49-1.62,1.54l-1.93,0.07v4.01h2
	c1.64,0,2.99-0.53,4.05-1.58c1.05-1.05,1.58-2.4,1.58-4.05V40.24c0-1.03,0.51-1.54,1.54-1.54c1.03,0,1.54,0.54,1.54,1.62v43.17
	c0,1.65,0.54,3.01,1.62,4.09c1.08,1.08,2.44,1.59,4.09,1.54l2.08-0.08l-0.08-3.93L710.18,85.03z M702.94,34.62
	c-1.03,0-1.54-0.51-1.54-1.54c0-1.03,0.51-1.54,1.54-1.54c1.03,0,1.54,0.51,1.54,1.54C704.48,34.1,703.96,34.62,702.94,34.62z"/>
<rect x="693.69" y="85.11" class="st1" width="0.08" height="4.01"/>
<path class="st1" d="M748.72,79.87V38.7h15.96c1.7,0,3.06-0.51,4.09-1.54c1.03-1.03,1.54-2.39,1.54-4.09s-0.51-3.06-1.54-4.09
	c-1.03-1.03-2.39-1.54-4.09-1.54h-43.17c-1.7,0-3.06,0.51-4.08,1.54c-1.03,1.03-1.54,2.39-1.54,4.09c0,1.65,0.53,2.99,1.58,4.05
	c1.05,1.05,2.4,1.58,4.05,1.58h15.96v41.16c0,3.44-1.72,5.16-5.17,5.16h-20.04v4.09h20.04c2.72,0,4.95-0.86,6.67-2.58
	c1.72-1.72,2.58-3.94,2.58-6.67V34.62h-20.04c-1.08,0-1.62-0.51-1.62-1.54c0-1.03,0.54-1.54,1.62-1.54h43.17
	c1.08,0,1.62,0.51,1.62,1.54c0,1.03-0.54,1.54-1.62,1.54h-20.04v45.25c0,2.67,0.87,4.88,2.62,6.63c1.75,1.75,3.96,2.62,6.63,2.62
	h20.04v-4.09h-20.04C750.45,85.03,748.72,83.31,748.72,79.87z"/>
<path class="st1" d="M807.77,85.03c4.21-3.29,6.32-8.02,6.32-14.18c0-6.37-2.24-11.2-6.71-14.49c-3.39-2.47-7.22-3.7-11.49-3.7
	c-1.29,0-2.54-0.33-3.78-1c-2.16-1.18-3.24-3.16-3.24-5.94c0-2.83,1.08-4.83,3.24-6.01c1.18-0.67,2.44-1,3.78-1
	c1.28,0,2.52,0.33,3.7,1c2.16,1.18,3.24,3.19,3.24,6.01v1.77c0,1.65,0.53,2.99,1.58,4.05c1.05,1.05,2.4,1.58,4.05,1.58
	c1.64,0,2.99-0.53,4.05-1.58c1.05-1.05,1.58-2.4,1.58-4.05v-1.77c0-6.42-2.24-11.28-6.71-14.57c-3.39-2.47-7.22-3.7-11.49-3.7
	s-8.09,1.23-11.49,3.7c-4.52,3.29-6.78,8.15-6.78,14.57c0,6.37,2.26,11.2,6.78,14.49c3.39,2.47,7.22,3.7,11.49,3.7
	c1.23,0,2.47,0.33,3.7,1c2.16,1.18,3.24,3.16,3.24,5.94c0,2.83-1.08,4.83-3.24,6.01c-1.18,0.67-2.44,1-3.78,1
	c-1.29,0-2.52-0.33-3.7-1c-2.16-1.18-3.24-3.19-3.24-6.01V67.3c0-1.7-0.51-3.06-1.54-4.09c-1.03-1.03-2.39-1.54-4.09-1.54
	c-1.7,0-3.06,0.51-4.08,1.54c-1.03,1.03-1.54,2.39-1.54,4.09v16.19c0,0.98-0.54,1.49-1.62,1.54l-2,0.08v4.01h2.08
	c1.59,0,2.93-0.54,4.01-1.62s1.62-2.42,1.62-4.01V67.3c0-1.08,0.51-1.62,1.54-1.62c1.03,0,1.54,0.54,1.54,1.62v3.55
	c0,3.24,1.04,5.9,3.12,7.98c2.08,2.08,4.74,3.12,7.98,3.12c3.24,0,5.88-1.04,7.94-3.12c2.05-2.08,3.08-4.74,3.08-7.98
	c0-3.19-1.04-5.82-3.12-7.9c-2.08-2.08-4.71-3.12-7.9-3.12c-2.52,0-4.96-0.62-7.32-1.85c-4.58-2.36-6.86-6.45-6.86-12.26
	c0-5.86,2.29-9.97,6.86-12.33c2.36-1.23,4.8-1.85,7.32-1.85c2.47,0,4.88,0.62,7.25,1.85c4.57,2.36,6.86,6.48,6.86,12.33v1.77
	c0,1.03-0.51,1.54-1.54,1.54c-1.03,0-1.54-0.51-1.54-1.54v-1.77c0-3.24-1.03-5.9-3.08-7.98c-2.06-2.08-4.7-3.12-7.94-3.12
	c-3.24,0-5.9,1.04-7.98,3.12c-2.08,2.08-3.12,4.74-3.12,7.98c0,6.68,3.62,10.36,10.87,11.02c3.19,0.31,5.68,0.93,7.48,1.85
	c4.57,2.36,6.86,6.45,6.86,12.26c0,5.86-2.29,9.97-6.86,12.33c-2.36,1.23-4.78,1.85-7.25,1.85v4.09h21.82v-4.09H807.77z"/>
<path class="st1" d="M40.37,30.55L4.13,66.79v17.02H39.2v17.53h21.54V65.62H28.49l35.07-35.07H40.37z M56.73,69.62v27.73H43.2V79.82
	H8.13V68.45l33.9-33.9H53.9L18.83,69.62H56.73z"/>
<path class="st1" d="M64.25,30.55v24.36l17.53-17.53v-6.83H64.25z M68.25,34.55h10.71L68.25,45.26V34.55z"/>
<polygon class="st1" points="68.26,85.1 68.26,83.16 68.25,83.16 68.25,68.45 85.78,50.92 85.78,34.55 99.32,34.55 99.32,49.26 
	81.78,66.79 81.78,83.16 81.77,83.16 81.77,84.34 85.78,80.33 85.78,68.45 103.32,50.92 103.32,30.55 88.61,30.55 81.78,37.38 
	81.78,49.26 64.25,66.79 64.25,87.16 64.25,87.16 64.25,85.11 "/>
<rect x="64.25" y="85.11" transform="matrix(1 -1.065481e-03 1.065481e-03 1 -0.0917 0.0706)" class="st1" width="4.01" height="2.05"/>
<polygon class="st1" points="81.78,30.55 81.78,37.38 88.61,30.55 "/>
<polygon class="st1" points="88.61,85.08 88.61,83.16 88.61,83.16 88.61,83.15 88.61,83.15 88.62,83.15 99.32,72.45 99.32,83.16 
	99.31,83.16 99.31,85.07 103.32,85.07 103.32,62.79 85.78,80.33 85.78,85.08 "/>
<rect x="99.31" y="85.07" class="st1" width="4.01" height="2.09"/>
<rect x="85.78" y="85.08" class="st1" width="2.83" height="2.07"/>
<polygon class="st1" points="81.77,85.09 85.78,85.08 85.78,80.33 81.77,84.34 "/>
<rect x="81.77" y="85.09" class="st1" width="4.01" height="2.07"/>
<polygon class="st2" points="88.61,83.15 88.61,83.15 88.62,83.15 "/>
</svg>
