<svg xmlns="http://www.w3.org/2000/svg" viewBox="0 0 822.9 115.4"><style type="text/css">  
	.st0{fill:none;}
	.st1{fill:#EBC440;}
	.st2{fill:#B2984B;}
</style><polygon class="st0" points="42 34.6 8.1 68.5 8.1 79.8 43.2 79.8 43.2 97.4 56.7 97.4 56.7 69.6 18.8 69.6 53.9 34.6 "/><polygon class="st0" points="88.6 83.2 88.6 83.2 88.6 83.2 "/><path class="st0" d="M702.9 31.5c-1 0-1.5 0.5-1.5 1.5 0 1 0.5 1.5 1.5 1.5 1 0 1.5-0.5 1.5-1.5C704.5 32.1 704 31.5 702.9 31.5z"/><polygon class="st0" points="68.3 34.6 68.3 45.3 79 34.6 "/><path class="st1" d="M179.9 85c4.2-3.3 6.3-8 6.3-14.2 0-6.4-2.2-11.2-6.7-14.5 -3.4-2.5-7.2-3.7-11.5-3.7 -1.3 0-2.5-0.3-3.8-1 -2.2-1.2-3.2-3.2-3.2-5.9 0-2.8 1.1-4.8 3.2-6 1.2-0.7 2.4-1 3.8-1 1.3 0 2.5 0.3 3.7 1 2.2 1.2 3.2 3.2 3.2 6v1.8c0 1.7 0.5 3 1.6 4.1 1.1 1.1 2.4 1.6 4.1 1.6 1.6 0 3-0.5 4.1-1.6 1.1-1 1.6-2.4 1.6-4v-1.8c0-6.4-2.2-11.3-6.7-14.6 -3.4-2.5-7.2-3.7-11.5-3.7 -4.3 0-8.1 1.2-11.5 3.7 -4.5 3.3-6.8 8.2-6.8 14.6 0 6.4 2.3 11.2 6.8 14.5 3.4 2.5 7.2 3.7 11.5 3.7 1.2 0 2.5 0.3 3.7 1 2.2 1.2 3.2 3.2 3.2 5.9 0 2.8-1.1 4.8-3.2 6 -1.2 0.7-2.4 1-3.8 1 -1.3 0-2.5-0.3-3.7-1 -2.2-1.2-3.2-3.2-3.2-6V67.3c0-1.7-0.5-3.1-1.5-4.1 -1-1-2.4-1.5-4.1-1.5s-3.1 0.5-4.1 1.5c-1 1-1.5 2.4-1.5 4.1v16.2c0 1-0.5 1.5-1.6 1.5l-48.9 0v2.1l0 0v2h48.9c1.6 0 2.9-0.5 4-1.6 1.1-1.1 1.6-2.4 1.6-4V67.3c0-1.1 0.5-1.6 1.5-1.6 1 0 1.5 0.5 1.5 1.6v3.6c0 3.2 1 5.9 3.1 8 2.1 2.1 4.7 3.1 8 3.1 3.2 0 5.9-1 7.9-3.1 2.1-2.1 3.1-4.7 3.1-8 0-3.2-1-5.8-3.1-7.9 -2.1-2.1-4.7-3.1-7.9-3.1 -2.5 0-5-0.6-7.3-1.8 -4.6-2.4-6.9-6.4-6.9-12.3 0-5.9 2.3-10 6.9-12.3 2.4-1.2 4.8-1.8 7.3-1.8 2.5 0 4.9 0.6 7.3 1.9 4.6 2.4 6.9 6.5 6.9 12.3v1.8c0 1-0.5 1.5-1.5 1.5 -1 0-1.5-0.5-1.5-1.5v-1.8c0-3.2-1-5.9-3.1-8 -2.1-2.1-4.7-3.1-7.9-3.1 -3.2 0-5.9 1-8 3.1 -2.1 2.1-3.1 4.7-3.1 8 0 6.7 3.6 10.4 10.9 11 3.2 0.3 5.7 0.9 7.5 1.9 4.6 2.4 6.9 6.5 6.9 12.3 0 5.9-2.3 10-6.9 12.3 -2.4 1.2-4.8 1.9-7.2 1.9v4.1h21.8v-4.1H179.9z"/><path class="st1" d="M85.8 87.2h-4c0 0 0.1 1.4 0.4 1.8 1.2 1.5 5.1 1.3 6.2 0.1 0.3-0.4 0.3-1.8 0.3-1.8H85.8z"/><path class="st1" d="M64.3 87.2c0 0 0 1.5 0.3 1.9 0.7 0.7 2.8 0.8 3.4 0 0.3-0.4 0.3-1.9 0.3-1.9H64.3z"/><path class="st1" d="M206.4 85c-1.1 0-1.6-0.5-1.6-1.5 0-1 0.5-1.5 1.6-1.5h25.1c1.6 0 2.9-0.5 4.1-1.6 1.1-1.1 1.7-2.4 1.7-4 0-1.6-0.5-3-1.6-4.1s-2.4-1.6-4.1-1.6h-21.6c-3.4 0-5.2-1.7-5.2-5.2 0-1.5 0.5-2.8 1.4-3.7 1-0.9 2.2-1.4 3.7-1.4h14.4c1.7 0 3.1-0.5 4.1-1.5 1-1 1.5-2.4 1.5-4.1 0-1.6-0.5-3-1.6-4 -1-1-2.4-1.6-4-1.6h-14.4c-1.5 0-2.8-0.5-3.7-1.4 -0.9-0.9-1.4-2.2-1.4-3.7s0.5-2.8 1.4-3.7c1-0.9 2.2-1.4 3.7-1.4h21.6c1.6 0 3-0.5 4.1-1.6 1.1-1 1.6-2.4 1.6-4 0-1.6-0.5-3-1.6-4 -1.1-1-2.4-1.6-4.1-1.6h-38v56c0 1-0.5 1.5-1.6 1.5h-2v4.1h2.1c1.6 0 3-0.5 4.1-1.6 1.1-1 1.6-2.4 1.6-4V31.5h33.9c1.1 0 1.6 0.5 1.6 1.5 0 1-0.5 1.5-1.6 1.5h-21.6c-2.7 0-4.9 0.9-6.6 2.6 -1.7 1.8-2.6 4-2.6 6.6 0 2.7 0.9 4.9 2.6 6.6 1.8 1.8 4 2.6 6.6 2.6h14.4c1 0 1.5 0.5 1.5 1.5 0 1.1-0.5 1.6-1.5 1.6h-14.4c-2.7 0-4.9 0.9-6.6 2.6 -1.7 1.7-2.6 4-2.6 6.7 0 2.7 0.9 4.9 2.6 6.7 1.8 1.8 4 2.6 6.6 2.6h21.6c1.1 0 1.6 0.5 1.6 1.6 0 1-0.5 1.5-1.6 1.5h-25.1c-1.6 0-3 0.5-4.1 1.6 -1.1 1.1-1.6 2.4-1.6 4.1 0 1.7 0.5 3 1.6 4.1 1.1 1.1 2.4 1.6 4.1 1.6h34.3v-4.1H206.4z"/><path class="st1" d="M277.4 81.3c6.3-1.3 11.5-4.5 15.6-9.6 4.1-5 6.1-10.8 6.1-17.2 0-7.7-2.7-14.1-8-19.5s-11.8-8-19.5-8c-7.6 0-14.1 2.7-19.4 8s-8 11.8-8 19.5c0 6.4 2 12.2 6.1 17.2 4.1 5 9.3 8.2 15.6 9.6v3.8h-25.3v4.1h29.4V77.8l-1.8-0.2c-5.7-0.7-10.5-3.3-14.3-7.7 -3.8-4.4-5.7-9.5-5.7-15.3 0-6.5 2.3-12 6.8-16.5 4.5-4.5 10-6.8 16.5-6.8 6.5 0 12.1 2.3 16.6 6.8 4.5 4.5 6.8 10.1 6.8 16.6 0 5.8-1.9 10.9-5.7 15.3 -3.8 4.5-8.6 7-14.3 7.8l-1.8 0.2v11.3h29.5v-4.1h-25.4V81.3z"/><rect x="240.7" y="85" class="st1" width="0.1" height="4.1"/><path class="st1" d="M355.3 85.1c-1.1 0-1.6-0.6-1.6-1.5V33.1c0-1.6-0.5-3-1.6-4 -1-1.1-2.4-1.6-4-1.6 -1.6 0-2.9 0.5-4 1.6s-1.6 2.4-1.6 4v32.4c0 2.2-0.5 4.4-1.6 6.5 -2.1 4-5.6 5.9-10.7 5.9 -5.1 0-8.7-2-10.7-5.9 -1.1-2.2-1.7-4.4-1.7-6.5V33.1c0-1.6-0.5-3-1.6-4 -1-1-2.4-1.6-4-1.6 -1.6 0-2.9 0.5-4 1.6s-1.6 2.4-1.6 4v50.4c0 1-0.5 1.5-1.6 1.5l-2 0.1v4h2.1c1.6 0 3-0.5 4.1-1.6 1.1-1 1.6-2.4 1.6-4V33.1c0-1 0.5-1.5 1.5-1.5 1 0 1.5 0.5 1.5 1.5v32.4c0 3.9 1.1 7.3 3.4 10.4 3 4.1 7.4 6.1 13.1 6.1 5.8 0 10.1-2 13-6.1 2.3-3.1 3.4-6.6 3.4-10.4V33.1c0-1 0.5-1.5 1.5-1.5 1.1 0 1.6 0.5 1.6 1.5v50.4c0 1.7 0.5 3 1.6 4.1 1.1 1.1 2.4 1.6 4.1 1.6l2.1 0.1 -0.1-4L355.3 85.1z"/><path class="st1" d="M372.3 83.5c0-1 0.5-1.5 1.6-1.5h18c1.6 0 3-0.5 4.1-1.6 1.1-1 1.6-2.4 1.6-4 0-1.6-0.5-3-1.6-4.1 -1-1.1-2.4-1.6-4-1.6h-14.4c-1.6 0-2.8-0.5-3.8-1.4 -0.9-0.9-1.4-2.2-1.4-3.8V33.1c0-1.6-0.5-3-1.6-4 -1-1-2.4-1.6-4-1.6 -1.6 0-2.9 0.5-4 1.6s-1.6 2.4-1.6 4v50.4c0 1-0.5 1.5-1.6 1.5h-2v4.1h2.1c1.6 0 3-0.5 4.1-1.6 1.1-1 1.6-2.4 1.6-4V33.1c0-1 0.5-1.5 1.5-1.5 1 0 1.5 0.5 1.5 1.5v32.4c0 2.7 0.9 4.9 2.6 6.6 1.8 1.8 4 2.6 6.6 2.6h14.4c1 0 1.5 0.5 1.5 1.6 0 1-0.5 1.5-1.5 1.5h-18c-1.6 0-3 0.5-4.1 1.6 -1.1 1.1-1.6 2.4-1.6 4.1 0 1.7 0.5 3 1.6 4.1 1.1 1.1 2.4 1.6 4.1 1.6h66.2v-4.1h-66.2C372.8 85 372.3 84.5 372.3 83.5z"/><path class="st1" d="M456.1 85c-1.1 0-1.6-0.5-1.6-1.5 0-1 0.5-1.5 1.6-1.5h18c3 0 5.7-0.9 8.1-2.6 3.2-2.3 4.8-5.7 4.8-10.3 0-4.5-1.6-8-4.8-10.3 -2.3-1.7-5-2.5-8.1-2.5h-18c-1.1 0-1.6-0.5-1.6-1.6 0-1 0.5-1.5 1.6-1.5h18c3 0 5.7-0.9 8.1-2.6 3.2-2.3 4.8-5.7 4.8-10.2 0-4.5-1.6-7.9-4.8-10.2 -2.4-1.7-5.1-2.6-8.1-2.6h-30.8v56c0 1-0.5 1.5-1.6 1.5h-2v4.1h2.1c1.6 0 3-0.5 4.1-1.6 1.1-1 1.6-2.4 1.6-4V31.5h26.8c1.7 0 3.3 0.4 4.7 1.2 2.7 1.4 4.1 4 4.1 7.6 0 3.6-1.4 6.1-4.1 7.6 -1.5 0.8-3.1 1.2-4.7 1.2h-18c-1.6 0-2.9 0.5-4 1.6 -1.1 1.1-1.7 2.4-1.7 4 0 1.7 0.5 3 1.6 4.1 1.1 1.1 2.4 1.6 4.1 1.6h18c1.6 0 3.2 0.4 4.7 1.2 2.7 1.5 4.1 4 4.1 7.6s-1.4 6.1-4.1 7.6c-1.5 0.8-3.1 1.2-4.7 1.2h-18c-1.6 0-3 0.5-4.1 1.6 -1.1 1.1-1.6 2.4-1.6 4.1 0 1.7 0.5 3 1.6 4.1 1.1 1.1 2.4 1.6 4.1 1.6h37.9v-4.1H456.1z"/><path class="st1" d="M544.8 85h-34.3c-1.1 0-1.6-0.5-1.6-1.5 0-1 0.5-1.5 1.6-1.5h25.1c1.6 0 2.9-0.5 4.1-1.6 1.1-1.1 1.7-2.4 1.7-4 0-1.6-0.5-3-1.6-4.1s-2.4-1.6-4.1-1.6h-21.6c-3.4 0-5.2-1.7-5.2-5.2 0-1.5 0.5-2.8 1.4-3.7 1-0.9 2.2-1.4 3.7-1.4h14.4c1.7 0 3.1-0.5 4.1-1.5 1-1 1.5-2.4 1.5-4.1 0-1.6-0.5-3-1.6-4 -1-1-2.4-1.6-4-1.6h-14.4c-1.5 0-2.8-0.5-3.7-1.4 -0.9-0.9-1.4-2.2-1.4-3.7s0.5-2.8 1.4-3.7c1-0.9 2.2-1.4 3.7-1.4h21.6c1.6 0 3-0.5 4.1-1.6 1.1-1 1.6-2.4 1.6-4 0-1.6-0.5-3-1.6-4 -1.1-1-2.4-1.6-4.1-1.6h-38v56c0 1-0.5 1.5-1.6 1.5h-1.9v4.1h2c1.6 0 3-0.5 4.1-1.6 1.1-1 1.6-2.4 1.6-4V31.5h33.9c1.1 0 1.6 0.5 1.6 1.5 0 1-0.5 1.5-1.6 1.5h-21.6c-2.7 0-4.9 0.9-6.6 2.6 -1.7 1.8-2.6 4-2.6 6.6 0 2.7 0.9 4.9 2.6 6.6 1.8 1.8 4 2.6 6.6 2.6h14.4c1 0 1.5 0.5 1.5 1.5 0 1.1-0.5 1.6-1.5 1.6h-14.4c-2.7 0-4.9 0.9-6.6 2.6 -1.7 1.7-2.6 4-2.6 6.7 0 2.7 0.9 4.9 2.6 6.7 1.8 1.8 4 2.6 6.6 2.6h21.6c1.1 0 1.6 0.5 1.6 1.6 0 1-0.5 1.5-1.6 1.5h-25.1c-1.6 0-3 0.5-4.1 1.6 -1.1 1.1-1.6 2.4-1.6 4.1 0 1.7 0.5 3 1.6 4.1 1.1 1.1 2.4 1.6 4.1 1.6h34.4v-0.1h-0.1V85z"/><rect x="494" y="85" class="st1" width="0.1" height="4.1"/><path class="st1" d="M590 85c-1.1 0-1.6-0.5-1.6-1.6V33.1c0-1.7-0.5-3.1-1.5-4.1 -1-1-2.4-1.5-4.1-1.5 -1.6 0-3 0.5-4 1.6 -1 1.1-1.6 2.4-1.6 4.1v45.4l-25.6-51h-3.2v56c0 1.1-0.5 1.6-1.6 1.6h-1.9v4h2c1.6 0 3-0.5 4-1.6 1-1 1.5-2.4 1.5-4V38.2l25.7 51h3.2V33.2c0-1.1 0.5-1.6 1.5-1.6 1.1 0 1.6 0.5 1.6 1.6v50.1c0 3.3 1.9 5.2 5.6 5.6l2.2 0.2 -0.1-4.2H590z"/><rect x="544.8" y="85" class="st1" width="0.1" height="4"/><path class="st1" d="M608.6 85c-1.1 0-1.6-0.5-1.6-1.5 0-1 0.5-1.5 1.6-1.5h25.1c1.6 0 2.9-0.5 4.1-1.6 1.1-1.1 1.7-2.4 1.7-4 0-1.6-0.5-3-1.6-4.1s-2.4-1.6-4.1-1.6h-21.6c-3.4 0-5.2-1.7-5.2-5.2 0-1.5 0.5-2.8 1.4-3.7 1-0.9 2.2-1.4 3.7-1.4h14.4c1.7 0 3.1-0.5 4.1-1.5 1-1 1.5-2.4 1.5-4.1 0-1.6-0.5-3-1.6-4 -1-1-2.4-1.6-4-1.6h-14.4c-1.5 0-2.8-0.5-3.7-1.4 -0.9-0.9-1.4-2.2-1.4-3.7s0.5-2.8 1.4-3.7c1-0.9 2.2-1.4 3.7-1.4h21.6c1.6 0 3-0.5 4.1-1.6 1.1-1 1.6-2.4 1.6-4 0-1.6-0.5-3-1.6-4 -1.1-1-2.4-1.6-4.1-1.6h-38v56c0 1-0.5 1.5-1.6 1.5h-2v4.1h2.1c1.6 0 3-0.5 4.1-1.6 1.1-1 1.6-2.4 1.6-4V31.5h33.9c1.1 0 1.6 0.5 1.6 1.5 0 1-0.5 1.5-1.6 1.5h-21.6c-2.7 0-4.9 0.9-6.6 2.6 -1.7 1.8-2.6 4-2.6 6.6 0 2.7 0.9 4.9 2.6 6.6 1.8 1.8 4 2.6 6.6 2.6h14.4c1 0 1.5 0.5 1.5 1.5 0 1.1-0.5 1.6-1.5 1.6h-14.4c-2.7 0-4.9 0.9-6.6 2.6 -1.7 1.7-2.6 4-2.6 6.7 0 2.7 0.9 4.9 2.6 6.7 1.8 1.8 4 2.6 6.6 2.6h21.6c1.1 0 1.6 0.5 1.6 1.6 0 1-0.5 1.5-1.6 1.5h-25.1c-1.6 0-3 0.5-4.1 1.6 -1.1 1.1-1.6 2.4-1.6 4.1 0 1.7 0.5 3 1.6 4.1 1.1 1.1 2.4 1.6 4.1 1.6h34.3v-4.1H608.6z"/><path class="st1" d="M693.8 85.1v-0.1h-36V65.5c0-1.5 0.5-2.8 1.4-3.7 1-0.9 2.2-1.4 3.7-1.4h14.4c1.7 0 3.1-0.5 4.1-1.5 1-1 1.5-2.4 1.5-4.1 0-1.6-0.5-3-1.6-4 -1-1-2.4-1.6-4-1.6h-14.4c-1.5 0-2.8-0.5-3.7-1.4 -0.9-0.9-1.4-2.2-1.4-3.7s0.5-2.8 1.4-3.7c1-0.9 2.2-1.4 3.7-1.4h21.6c1.6 0 3-0.5 4.1-1.6 1.1-1 1.6-2.4 1.6-4 0-1.6-0.5-3-1.6-4 -1.1-1-2.4-1.6-4.1-1.6h-38v56c0 1-0.5 1.5-1.6 1.5h-1.9v4.1h2c1.6 0 3-0.5 4.1-1.6 1.1-1 1.6-2.4 1.6-4V31.5h33.9c1.1 0 1.6 0.5 1.6 1.5 0 1-0.5 1.5-1.6 1.5h-21.6c-2.7 0-4.9 0.9-6.6 2.6 -1.7 1.8-2.6 4-2.6 6.6 0 2.7 0.9 4.9 2.6 6.6 1.8 1.8 4 2.6 6.6 2.6h14.4c1 0 1.5 0.5 1.5 1.5 0 1.1-0.5 1.6-1.5 1.6h-14.4c-2.7 0-4.9 0.9-6.6 2.6 -1.7 1.7-2.6 3.9-2.6 6.6v23.7h40v-4L693.8 85.1z"/><rect x="642.9" y="85" class="st1" width="0.1" height="4.1"/><path class="st1" d="M710.2 85c-1.1 0-1.6-0.6-1.6-1.5V40.2c0-1.3-0.4-2.5-1.2-3.6 0.8-1 1.2-2.2 1.2-3.5 0-1.5-0.5-2.9-1.7-4 -1.1-1.1-2.4-1.7-4-1.7s-2.9 0.6-4 1.7c-1.1 1.1-1.7 2.4-1.7 4 0 1.3 0.4 2.5 1.2 3.6 -0.8 1.1-1.2 2.3-1.2 3.6v43.2c0 1-0.5 1.5-1.6 1.5l-1.9 0.1v4h2c1.6 0 3-0.5 4.1-1.6 1.1-1 1.6-2.4 1.6-4V40.2c0-1 0.5-1.5 1.5-1.5 1 0 1.5 0.5 1.5 1.6v43.2c0 1.7 0.5 3 1.6 4.1 1.1 1.1 2.4 1.6 4.1 1.5l2.1-0.1 -0.1-3.9L710.2 85zM702.9 34.6c-1 0-1.5-0.5-1.5-1.5 0-1 0.5-1.5 1.5-1.5 1 0 1.5 0.5 1.5 1.5C704.5 34.1 704 34.6 702.9 34.6z"/><rect x="693.7" y="85.1" class="st1" width="0.1" height="4"/><path class="st1" d="M748.7 79.9V38.7h16c1.7 0 3.1-0.5 4.1-1.5 1-1 1.5-2.4 1.5-4.1s-0.5-3.1-1.5-4.1c-1-1-2.4-1.5-4.1-1.5h-43.2c-1.7 0-3.1 0.5-4.1 1.5 -1 1-1.5 2.4-1.5 4.1 0 1.7 0.5 3 1.6 4.1 1.1 1.1 2.4 1.6 4.1 1.6h16v41.2c0 3.4-1.7 5.2-5.2 5.2h-20v4.1h20c2.7 0 5-0.9 6.7-2.6 1.7-1.7 2.6-3.9 2.6-6.7V34.6h-20c-1.1 0-1.6-0.5-1.6-1.5 0-1 0.5-1.5 1.6-1.5h43.2c1.1 0 1.6 0.5 1.6 1.5 0 1-0.5 1.5-1.6 1.5h-20v45.3c0 2.7 0.9 4.9 2.6 6.6 1.8 1.8 4 2.6 6.6 2.6h20v-4.1h-20C750.5 85 748.7 83.3 748.7 79.9z"/><path class="st1" d="M807.8 85c4.2-3.3 6.3-8 6.3-14.2 0-6.4-2.2-11.2-6.7-14.5 -3.4-2.5-7.2-3.7-11.5-3.7 -1.3 0-2.5-0.3-3.8-1 -2.2-1.2-3.2-3.2-3.2-5.9 0-2.8 1.1-4.8 3.2-6 1.2-0.7 2.4-1 3.8-1 1.3 0 2.5 0.3 3.7 1 2.2 1.2 3.2 3.2 3.2 6v1.8c0 1.7 0.5 3 1.6 4.1 1.1 1.1 2.4 1.6 4.1 1.6 1.6 0 3-0.5 4.1-1.6 1.1-1 1.6-2.4 1.6-4v-1.8c0-6.4-2.2-11.3-6.7-14.6 -3.4-2.5-7.2-3.7-11.5-3.7s-8.1 1.2-11.5 3.7c-4.5 3.3-6.8 8.2-6.8 14.6 0 6.4 2.3 11.2 6.8 14.5 3.4 2.5 7.2 3.7 11.5 3.7 1.2 0 2.5 0.3 3.7 1 2.2 1.2 3.2 3.2 3.2 5.9 0 2.8-1.1 4.8-3.2 6 -1.2 0.7-2.4 1-3.8 1 -1.3 0-2.5-0.3-3.7-1 -2.2-1.2-3.2-3.2-3.2-6V67.3c0-1.7-0.5-3.1-1.5-4.1 -1-1-2.4-1.5-4.1-1.5 -1.7 0-3.1 0.5-4.1 1.5 -1 1-1.5 2.4-1.5 4.1v16.2c0 1-0.5 1.5-1.6 1.5l-2 0.1v4h2.1c1.6 0 2.9-0.5 4-1.6s1.6-2.4 1.6-4V67.3c0-1.1 0.5-1.6 1.5-1.6 1 0 1.5 0.5 1.5 1.6v3.6c0 3.2 1 5.9 3.1 8 2.1 2.1 4.7 3.1 8 3.1 3.2 0 5.9-1 7.9-3.1 2.1-2.1 3.1-4.7 3.1-8 0-3.2-1-5.8-3.1-7.9 -2.1-2.1-4.7-3.1-7.9-3.1 -2.5 0-5-0.6-7.3-1.8 -4.6-2.4-6.9-6.4-6.9-12.3 0-5.9 2.3-10 6.9-12.3 2.4-1.2 4.8-1.8 7.3-1.8 2.5 0 4.9 0.6 7.3 1.9 4.6 2.4 6.9 6.5 6.9 12.3v1.8c0 1-0.5 1.5-1.5 1.5 -1 0-1.5-0.5-1.5-1.5v-1.8c0-3.2-1-5.9-3.1-8 -2.1-2.1-4.7-3.1-7.9-3.1 -3.2 0-5.9 1-8 3.1 -2.1 2.1-3.1 4.7-3.1 8 0 6.7 3.6 10.4 10.9 11 3.2 0.3 5.7 0.9 7.5 1.9 4.6 2.4 6.9 6.5 6.9 12.3 0 5.9-2.3 10-6.9 12.3 -2.4 1.2-4.8 1.9-7.2 1.9v4.1h21.8v-4.1H807.8z"/><path class="st1" d="M40.4 30.6L4.1 66.8v17H39.2v17.5h21.5V65.6H28.5l35.1-35.1H40.4zM56.7 69.6v27.7H43.2V79.8H8.1V68.5l33.9-33.9H53.9L18.8 69.6H56.7z"/><path class="st1" d="M64.3 30.6v24.4l17.5-17.5v-6.8H64.3zM68.3 34.6h10.7L68.3 45.3V34.6z"/><polygon class="st1" points="68.3 85.1 68.3 83.2 68.3 83.2 68.3 68.5 85.8 50.9 85.8 34.6 99.3 34.6 99.3 49.3 81.8 66.8 81.8 83.2 81.8 83.2 81.8 84.3 85.8 80.3 85.8 68.5 103.3 50.9 103.3 30.6 88.6 30.6 81.8 37.4 81.8 49.3 64.3 66.8 64.3 87.2 64.3 87.2 64.3 85.1 "/><rect x="64.3" y="85.1" transform="matrix(1 -0.001065481 0.001065481 1 -0.0917 0.0706)" class="st1" width="4" height="2.1"/><polygon class="st1" points="81.8 30.6 81.8 37.4 88.6 30.6 "/><polygon class="st1" points="88.6 85.1 88.6 83.2 88.6 83.2 88.6 83.2 88.6 83.2 88.6 83.2 99.3 72.5 99.3 83.2 99.3 83.2 99.3 85.1 103.3 85.1 103.3 62.8 85.8 80.3 85.8 85.1 "/><rect x="99.3" y="85.1" class="st1" width="4" height="2.1"/><rect x="85.8" y="85.1" class="st1" width="2.8" height="2.1"/><polygon class="st1" points="81.8 85.1 85.8 85.1 85.8 80.3 81.8 84.3 "/><rect x="81.8" y="85.1" class="st1" width="4" height="2.1"/><polygon class="st2" points="88.6 83.2 88.6 83.2 88.6 83.2 "/></svg>